<svg xmlns="http://www.w3.org/2000/svg" version="1.1" id="Layer_1" xmlns:xlink="https://www.w3.org/1999/xlink" x="0px" y="0px" viewBox="0 0 32 32" style="enable-background:new 0 0 32 32;" xml:space="preserve"><style type="text/css">
	.st0{fill:#222160;}
	.st1{fill:#E61E2A;}
</style><rect x="6" y="22.2" class="st0" width="1" height="3.2"/><rect x="12.4" y="19.1" class="st0" width="1" height="6.3"/><rect x="18.7" y="19.1" class="st0" width="1" height="6.3"/><rect x="25.1" y="12.7" class="st0" width="1" height="12.7"/><polygon class="st0" points="6.8,19.4 6.1,18.7 12.7,12.2 18.9,12.2 25.2,5.9 25.9,6.6 19.3,13.2 13.1,13.2 "/><polygon class="st0" points="28.7,28.8 3.2,28.8 3.2,3.5 4.2,3.5 4.2,27.8 28.7,27.8 "/><path class="st1" d="M12.1,3.3V4h-1.4v1.4H9.7v2.1h1.1V9h1.4v0.7h0.7c1.8,0,3.3-1.4,3.3-3.2c0-1.8-1.4-3.2-3.2-3.2L12.1,3.3&#10;&#9;L12.1,3.3z"/></svg>